<svg id="图层_1" data-name="图层 1" xmlns="http://www.w3.org/2000/svg" viewBox="0 0 20 20"><defs><style>.cls-1{fill:#fff;}.cls-2{fill:#144299;}</style></defs><title>word</title><rect class="cls-1" x="0.5" y="0.5" width="19" height="19"/><path class="cls-2" d="M19,1V19H1V1H19m1-1H0V20H20V0Z"/><polygon class="cls-2" points="5.5 15 7.64 15 11.07 5 8.93 5 5.5 15"/><polygon class="cls-2" points="7.64 15 5.5 15 2.07 5 4.21 5 7.64 15"/><polygon class="cls-2" points="14.5 15 12.36 15 8.93 5 11.07 5 14.5 15"/><polygon class="cls-2" points="12.36 15 14.5 15 17.93 5 15.79 5 12.36 15"/><polygon class="cls-2" points="15.87 5 13.6 5 14.26 6.83 15.71 6.83 15.87 5"/></svg>