<svg id="图层_1" data-name="图层 1" xmlns="http://www.w3.org/2000/svg" viewBox="0 0 20 20"><defs><style>.cls-1{fill:#fff;}.cls-2{fill:#b3403e;}</style></defs><title>reader</title><rect class="cls-1" x="0.5" y="0.5" width="19" height="19"/><path class="cls-2" d="M19,1V19H1V1H19m1-1H0V20H20V0Z"/><path class="cls-2" d="M17.15,12.1c-1-.65-3.33-.63-4.65-.55-.28-.27-.9-.88-1.62-1.63a9.66,9.66,0,0,1-1.41-2,8.41,8.41,0,0,0,.68-4.33C9.73,2.09,7.37,1.8,7.63,4.81a9.12,9.12,0,0,0,1,3.28,45.29,45.29,0,0,1-2.2,5A12.38,12.38,0,0,0,2.8,15.42a2.76,2.76,0,0,0-.64,1.19.81.81,0,0,0,1,.88,5.5,5.5,0,0,0,3-2.29,11.22,11.22,0,0,0,.69-1.08s.77-.4,1.22-.59a23.06,23.06,0,0,1,4.07-1.26c.4.16.86.37,1.17.51a15.23,15.23,0,0,0,2.93,1C17.61,14,18.56,13,17.15,12.1ZM8.5,4.23c.07-1,.77-.6.89,0a4.62,4.62,0,0,1-.13,1.58q-.12.48-.27,1A6,6,0,0,1,8.5,4.23Zm-3.34,11a2.42,2.42,0,0,1-.27.36c-.42.48-1.86,1.7-1.92,1-.1-1.13,2.49-2,2.57-2A4.68,4.68,0,0,1,5.16,15.26Zm2-2.5A27.18,27.18,0,0,0,9.07,8.93a11.55,11.55,0,0,0,2.47,2.76h0v0l0,0A18.89,18.89,0,0,0,7.15,12.76Zm10,.48c-.65.4-2.18-.37-2.18-.37a6.35,6.35,0,0,1-1.39-.77,8.12,8.12,0,0,1,2.72,0,2,2,0,0,1,.83.37C17.32,12.7,17.51,13,17.11,13.24Z"/></svg>